<svg width="674" height="165" viewBox="0 0 674 165" fill="none" xmlns="http://www.w3.org/2000/svg">
<g style="mix-blend-mode:difference">
<path d="M81.4683 5.44217e-06L162.936 82.5L81.4683 165L0.00014546 82.5L81.4683 5.44217e-06Z" fill="white"/>
</g>
<g style="mix-blend-mode:difference">
<path d="M251.51 31V36.31C248.27 32.26 243.41 29.74 236.84 29.74C224.87 29.74 214.97 40.09 214.97 53.5C214.97 66.91 224.87 77.26 236.84 77.26C243.41 77.26 248.27 74.74 251.51 70.69V76H263.12V31H251.51ZM239 66.19C231.89 66.19 226.58 61.06 226.58 53.5C226.58 45.94 231.89 40.81 239 40.81C246.2 40.81 251.51 45.94 251.51 53.5C251.51 61.06 246.2 66.19 239 66.19ZM295.068 77.26C303.888 77.26 311.538 72.58 315.408 65.56L305.328 59.8C303.528 63.49 299.658 65.74 294.978 65.74C288.048 65.74 282.918 60.61 282.918 53.5C282.918 46.3 288.048 41.17 294.978 41.17C299.568 41.17 303.438 43.51 305.238 47.2L315.228 41.35C311.538 34.42 303.888 29.74 295.068 29.74C281.388 29.74 271.308 40.09 271.308 53.5C271.308 66.91 281.388 77.26 295.068 77.26ZM371.67 29.74C365.55 29.74 361.05 32.17 358.26 36.22C355.74 32.08 351.6 29.74 346.02 29.74C340.26 29.74 336.03 31.99 333.51 35.77V31H321.9V76H333.51V50.71C333.51 43.96 337.02 40.54 341.97 40.54C346.83 40.54 349.53 43.78 349.53 49.09V76H361.14V50.71C361.14 43.96 364.38 40.54 369.51 40.54C374.37 40.54 377.07 43.78 377.07 49.09V76H388.68V48.28C388.68 37.03 381.93 29.74 371.67 29.74Z" fill="white"/>
</g>
<path d="M227.12 126.27H261.05C261.32 124.74 261.5 123.21 261.5 121.5C261.5 108.27 252.05 97.74 238.73 97.74C224.6 97.74 214.97 108.09 214.97 121.5C214.97 134.91 224.51 145.26 239.63 145.26C248.27 145.26 255.02 141.75 259.25 135.63L249.89 130.23C247.91 132.84 244.31 134.73 239.81 134.73C233.69 134.73 228.74 132.21 227.12 126.27ZM226.94 117.27C228.29 111.51 232.52 108.18 238.73 108.18C243.59 108.18 248.45 110.79 249.89 117.27H226.94ZM303.363 81V104.31C300.123 100.17 295.353 97.74 288.783 97.74C276.723 97.74 266.823 108.09 266.823 121.5C266.823 134.91 276.723 145.26 288.783 145.26C295.353 145.26 300.123 142.83 303.363 138.69V144H314.973V81H303.363ZM290.943 134.19C283.743 134.19 278.433 129.06 278.433 121.5C278.433 113.94 283.743 108.81 290.943 108.81C298.053 108.81 303.363 113.94 303.363 121.5C303.363 129.06 298.053 134.19 290.943 134.19ZM355.291 99V123.3C355.291 131.13 351.061 134.46 345.391 134.46C340.171 134.46 336.481 131.31 336.481 125.19V99H324.871V126.63C324.871 138.6 332.341 145.26 341.881 145.26C347.911 145.26 352.591 143.01 355.291 138.96V144H366.901V99H355.291ZM398.955 145.26C407.775 145.26 415.425 140.58 419.295 133.56L409.215 127.8C407.415 131.49 403.545 133.74 398.865 133.74C391.935 133.74 386.805 128.61 386.805 121.5C386.805 114.3 391.935 109.17 398.865 109.17C403.455 109.17 407.325 111.51 409.125 115.2L419.115 109.35C415.425 102.42 407.775 97.74 398.955 97.74C385.275 97.74 375.195 108.09 375.195 121.5C375.195 134.91 385.275 145.26 398.955 145.26ZM458.932 99V104.31C455.692 100.26 450.832 97.74 444.262 97.74C432.292 97.74 422.392 108.09 422.392 121.5C422.392 134.91 432.292 145.26 444.262 145.26C450.832 145.26 455.692 142.74 458.932 138.69V144H470.542V99H458.932ZM446.422 134.19C439.312 134.19 434.002 129.06 434.002 121.5C434.002 113.94 439.312 108.81 446.422 108.81C453.622 108.81 458.932 113.94 458.932 121.5C458.932 129.06 453.622 134.19 446.422 134.19ZM506.81 110.16V99H496.64V86.4L485.03 89.91V99H477.2V110.16H485.03V128.88C485.03 141.03 490.52 145.8 506.81 144V133.47C500.15 133.83 496.64 133.74 496.64 128.88V110.16H506.81ZM520.756 93.6C524.716 93.6 527.956 90.36 527.956 86.49C527.956 82.62 524.716 79.29 520.756 79.29C516.886 79.29 513.646 82.62 513.646 86.49C513.646 90.36 516.886 93.6 520.756 93.6ZM514.996 144H526.606V99H514.996V144ZM558.652 145.26C571.882 145.26 582.502 134.91 582.502 121.5C582.502 108.09 571.882 97.74 558.652 97.74C545.422 97.74 534.892 108.09 534.892 121.5C534.892 134.91 545.422 145.26 558.652 145.26ZM558.652 133.92C551.812 133.92 546.502 128.79 546.502 121.5C546.502 114.21 551.812 109.08 558.652 109.08C565.582 109.08 570.892 114.21 570.892 121.5C570.892 128.79 565.582 133.92 558.652 133.92ZM615.689 97.74C609.659 97.74 604.979 99.99 602.279 104.04V99H590.669V144H602.279V119.7C602.279 111.87 606.509 108.54 612.179 108.54C617.399 108.54 621.089 111.69 621.089 117.81V144H632.699V116.37C632.699 104.4 625.229 97.74 615.689 97.74ZM649.363 145.17C653.593 145.17 657.013 141.75 657.013 137.52C657.013 133.29 653.593 129.87 649.363 129.87C645.133 129.87 641.713 133.29 641.713 137.52C641.713 141.75 645.133 145.17 649.363 145.17Z" fill="url(#paint0_linear)"/>
<g style="mix-blend-mode:difference">
<path d="M69.7751 92.2615L119.744 142.295L147.943 148.001L142.271 119.804L92.2982 69.7659L69.7751 92.2615ZM128.666 133.317L125.302 136.677L81.3184 92.5772L84.6791 89.2206L128.666 133.317ZM136.615 125.378L133.25 128.739L89.2668 84.6384L92.6314 81.2779L136.615 125.378ZM75.5629 53.014L86.704 64.1608L64.1769 86.6604L53.0437 75.5137L75.5629 53.014Z" fill="white"/>
</g>
<defs>
<linearGradient id="paint0_linear" x1="267.982" y1="60.37" x2="510.869" y2="292.006" gradientUnits="userSpaceOnUse">
<stop stop-color="#56E100"/>
<stop offset="1" stop-color="#00EAC0"/>
</linearGradient>
</defs>
</svg>
